<svg width="24" height="24" viewBox="0 0 24 24" fill="none" xmlns="http://www.w3.org/2000/svg">
<path d="M17 16.93C16.8126 17.1162 16.5592 17.2208 16.295 17.2208C16.0308 17.2208 15.7774 17.1162 15.59 16.93L7.05001 8.49C6.95628 8.39703 6.88189 8.28643 6.83112 8.16457C6.78035 8.04272 6.75421 7.91201 6.75421 7.78C6.75421 7.64799 6.78035 7.51728 6.83112 7.39542C6.88189 7.27356 6.95628 7.16296 7.05001 7.07V7.07C7.23737 6.88375 7.49082 6.77921 7.75501 6.77921C8.0192 6.77921 8.27265 6.88375 8.46001 7.07L17 15.51C17.0937 15.603 17.1681 15.7136 17.2189 15.8354C17.2697 15.9573 17.2958 16.088 17.2958 16.22C17.2958 16.352 17.2697 16.4827 17.2189 16.6046C17.1681 16.7264 17.0937 16.837 17 16.93V16.93Z" fill="black"/>
<path opacity="0.3" d="M8.45998 17C8.26902 17.1936 8.00898 17.3034 7.73705 17.3053C7.46512 17.3072 7.20359 17.201 7.00998 17.01C6.81637 16.819 6.70655 16.559 6.70468 16.2871C6.7028 16.0151 6.80902 15.7536 6.99998 15.56L15.54 7C15.7309 6.80639 15.991 6.69657 16.2629 6.6947C16.5348 6.69282 16.7964 6.79904 16.99 6.99C17.1836 7.18096 17.2934 7.441 17.2953 7.71293C17.2972 7.98486 17.1909 8.24639 17 8.44L8.45998 17Z" fill="black"/>
</svg>
