<svg width="24" height="24" viewBox="0 0 24 24" fill="none" xmlns="http://www.w3.org/2000/svg">
<path opacity="0.3" d="M15.45 6C15.4032 4.94955 14.9447 3.95979 14.1736 3.24488C13.4026 2.52996 12.381 2.14741 11.33 2.18H7.00003C5.94226 2.13662 4.91043 2.51434 4.13066 3.23038C3.35089 3.94641 2.88678 4.94237 2.84003 6V18C2.8842 19.0594 3.3472 20.0579 4.12725 20.7761C4.90731 21.4943 5.9406 21.8733 7.00003 21.83H11.37C12.4158 21.8519 13.4286 21.4632 14.1913 20.7472C14.9539 20.0313 15.4058 19.0451 15.45 18V6Z" fill="black"/>
<path d="M8.69 11.25H18.6L17 9.60999C16.8596 9.46936 16.7807 9.27874 16.7807 9.07999C16.7807 8.88123 16.8596 8.69061 17 8.54999C17.0689 8.47923 17.1514 8.42299 17.2424 8.38459C17.3334 8.3462 17.4312 8.32642 17.53 8.32642C17.6288 8.32642 17.7266 8.3462 17.8176 8.38459C17.9086 8.42299 17.9911 8.47923 18.06 8.54999L20.99 11.47C21.1305 11.6106 21.2093 11.8012 21.2093 12C21.2093 12.1987 21.1305 12.3894 20.99 12.53L18 15.45C17.9311 15.5206 17.8486 15.5764 17.7575 15.6142C17.6664 15.6521 17.5686 15.671 17.47 15.67C17.3715 15.6705 17.2738 15.6512 17.1828 15.6135C17.0918 15.5757 17.0092 15.5201 16.94 15.45C16.7996 15.3094 16.7207 15.1187 16.7207 14.92C16.7207 14.7212 16.7996 14.5306 16.94 14.39L18.59 12.75H8.69C8.49109 12.75 8.30032 12.671 8.15967 12.5303C8.01902 12.3897 7.94 12.1989 7.94 12C7.94 11.8011 8.01902 11.6103 8.15967 11.4697C8.30032 11.329 8.49109 11.25 8.69 11.25Z" fill="black"/>
</svg>
